<svg xmlns="http://www.w3.org/2000/svg" viewBox="0 0 1400 1900" font-family="'Segoe UI', system-ui, -apple-system, sans-serif">
  <defs>
    <linearGradient id="headerGrad" x1="0%" y1="0%" x2="100%" y2="100%">
      <stop offset="0%" style="stop-color:#4f46e5"/>
      <stop offset="100%" style="stop-color:#7c3aed"/>
    </linearGradient>
    <linearGradient id="card1" x1="0%" y1="0%" x2="100%" y2="100%">
      <stop offset="0%" style="stop-color:#ef4444"/>
      <stop offset="100%" style="stop-color:#f97316"/>
    </linearGradient>
    <linearGradient id="card2" x1="0%" y1="0%" x2="100%" y2="100%">
      <stop offset="0%" style="stop-color:#3b82f6"/>
      <stop offset="100%" style="stop-color:#06b6d4"/>
    </linearGradient>
    <linearGradient id="card3" x1="0%" y1="0%" x2="100%" y2="100%">
      <stop offset="0%" style="stop-color:#8b5cf6"/>
      <stop offset="100%" style="stop-color:#a855f7"/>
    </linearGradient>
    <linearGradient id="card4" x1="0%" y1="0%" x2="100%" y2="100%">
      <stop offset="0%" style="stop-color:#10b981"/>
      <stop offset="100%" style="stop-color:#14b8a6"/>
    </linearGradient>
    <linearGradient id="flowGrad" x1="0%" y1="0%" x2="0%" y2="100%">
      <stop offset="0%" style="stop-color:#4f46e5;stop-opacity:0.15"/>
      <stop offset="100%" style="stop-color:#7c3aed;stop-opacity:0.05"/>
    </linearGradient>
    <linearGradient id="benefitGrad" x1="0%" y1="0%" x2="100%" y2="100%">
      <stop offset="0%" style="stop-color:#f0fdf4"/>
      <stop offset="100%" style="stop-color:#ecfdf5"/>
    </linearGradient>
    <filter id="shadow" x="-5%" y="-5%" width="110%" height="115%">
      <feDropShadow dx="0" dy="4" stdDeviation="8" flood-color="#000" flood-opacity="0.1"/>
    </filter>
    <filter id="shadowLg" x="-5%" y="-5%" width="110%" height="115%">
      <feDropShadow dx="0" dy="8" stdDeviation="16" flood-color="#000" flood-opacity="0.12"/>
    </filter>
  </defs>

  <!-- Background -->
  <rect width="1400" height="1900" fill="#f8fafc"/>

  <!-- Header Banner -->
  <rect x="0" y="0" width="1400" height="280" rx="0" fill="url(#headerGrad)"/>
  <circle cx="1300" cy="60" r="180" fill="white" opacity="0.05"/>
  <circle cx="100" cy="220" r="120" fill="white" opacity="0.05"/>
  <circle cx="700" cy="-30" r="200" fill="white" opacity="0.04"/>

  <!-- Shield Icon -->
  <g transform="translate(700, 70)">
    <rect x="-32" y="-32" width="64" height="64" rx="16" fill="white" opacity="0.15"/>
    <path d="M-12,-16 L0,-22 L12,-16 L12,4 C12,12 0,20 0,20 C0,20 -12,12 -12,4 Z" fill="white" opacity="0.9" stroke="none"/>
    <path d="M-4,2 L-1,5 L6,-3" fill="none" stroke="url(#headerGrad)" stroke-width="2.5" stroke-linecap="round" stroke-linejoin="round"/>
  </g>

  <!-- Title -->
  <text x="700" y="145" text-anchor="middle" fill="white" font-size="48" font-weight="800" letter-spacing="-1">IP Contingency</text>
  <text x="700" y="185" text-anchor="middle" fill="white" opacity="0.85" font-size="22" font-weight="400">Intellectual Property Ownership Risk Tracker</text>
  <text x="700" y="225" text-anchor="middle" fill="white" opacity="0.6" font-size="16">Built for in-house counsel to surface gaps before they become crises</text>

  <!-- ═══════════════════════ THE PROBLEM ═══════════════════════ -->
  <text x="700" y="330" text-anchor="middle" fill="#1e1b4b" font-size="28" font-weight="700">The Problem We Solve</text>
  <line x1="660" y1="345" x2="740" y2="345" stroke="#4f46e5" stroke-width="3" stroke-linecap="round"/>

  <!-- Problem cards -->
  <g filter="url(#shadow)">
    <rect x="60" y="370" width="300" height="120" rx="16" fill="white"/>
    <rect x="60" y="370" width="300" height="4" rx="2" fill="url(#card1)"/>
    <circle cx="100" cy="420" r="20" fill="#fef2f2"/>
    <text x="100" y="426" text-anchor="middle" fill="#ef4444" font-size="20">!</text>
    <text x="135" y="415" fill="#1e293b" font-size="15" font-weight="600">Ownership Gaps</text>
    <text x="135" y="438" fill="#64748b" font-size="12.5">Missing IP assignments from founders,</text>
    <text x="135" y="455" fill="#64748b" font-size="12.5">employees, and contractors go unnoticed</text>
    <text x="135" y="472" fill="#64748b" font-size="12.5">until due diligence or litigation hits.</text>
  </g>

  <g filter="url(#shadow)">
    <rect x="400" y="370" width="300" height="120" rx="16" fill="white"/>
    <rect x="400" y="370" width="300" height="4" rx="2" fill="url(#card1)"/>
    <circle cx="440" cy="420" r="20" fill="#fef2f2"/>
    <text x="440" y="425" text-anchor="middle" fill="#ef4444" font-size="18">&#x23F0;</text>
    <text x="475" y="415" fill="#1e293b" font-size="15" font-weight="600">Missed Deadlines</text>
    <text x="475" y="438" fill="#64748b" font-size="12.5">Statutory filing deadlines tracked in</text>
    <text x="475" y="455" fill="#64748b" font-size="12.5">spreadsheets. One missed deadline =</text>
    <text x="475" y="472" fill="#64748b" font-size="12.5">permanent loss of IP rights.</text>
  </g>

  <g filter="url(#shadow)">
    <rect x="740" y="370" width="300" height="120" rx="16" fill="white"/>
    <rect x="740" y="370" width="300" height="4" rx="2" fill="url(#card1)"/>
    <circle cx="780" cy="420" r="20" fill="#fef2f2"/>
    <text x="780" y="425" text-anchor="middle" fill="#ef4444" font-size="18">&#x1F30D;</text>
    <text x="815" y="415" fill="#1e293b" font-size="15" font-weight="600">Jurisdiction Blind Spots</text>
    <text x="815" y="438" fill="#64748b" font-size="12.5">No visibility into which markets are</text>
    <text x="815" y="455" fill="#64748b" font-size="12.5">covered vs. intended. Expansion plans</text>
    <text x="815" y="472" fill="#64748b" font-size="12.5">live in someone's head, not a system.</text>
  </g>

  <g filter="url(#shadow)">
    <rect x="1080" y="370" width="260" height="120" rx="16" fill="white"/>
    <rect x="1080" y="370" width="260" height="4" rx="2" fill="url(#card1)"/>
    <circle cx="1120" cy="420" r="20" fill="#fef2f2"/>
    <text x="1120" y="425" text-anchor="middle" fill="#ef4444" font-size="18">&#x1F4CB;</text>
    <text x="1155" y="415" fill="#1e293b" font-size="15" font-weight="600">No Audit Trail</text>
    <text x="1155" y="438" fill="#64748b" font-size="12.5">Changes to IP records are</text>
    <text x="1155" y="455" fill="#64748b" font-size="12.5">untraceable. No accountability</text>
    <text x="1155" y="472" fill="#64748b" font-size="12.5">for compliance or disputes.</text>
  </g>

  <!-- ═══════════════════════ CORE FEATURES FLOW ═══════════════════════ -->
  <text x="700" y="560" text-anchor="middle" fill="#1e1b4b" font-size="28" font-weight="700">How It Works</text>
  <line x1="660" y1="575" x2="740" y2="575" stroke="#4f46e5" stroke-width="3" stroke-linecap="round"/>
  <text x="700" y="600" text-anchor="middle" fill="#64748b" font-size="15">A unified workflow from data entry to risk visibility</text>

  <!-- Flow background -->
  <rect x="60" y="625" width="1280" height="520" rx="20" fill="url(#flowGrad)"/>

  <!-- Step 1 -->
  <g filter="url(#shadowLg)">
    <rect x="100" y="660" width="340" height="200" rx="16" fill="white"/>
    <circle cx="140" cy="700" r="20" fill="#4f46e5"/>
    <text x="140" y="706" text-anchor="middle" fill="white" font-size="14" font-weight="700">1</text>
    <text x="175" y="706" fill="#1e1b4b" font-size="18" font-weight="700">Register IP Assets</text>
    <line x1="120" y1="730" x2="420" y2="730" stroke="#e2e8f0" stroke-width="1"/>
    <text x="120" y="755" fill="#475569" font-size="13.5">Add patents, trademarks with details:</text>
    <circle cx="130" cy="778" r="3" fill="#4f46e5"/>
    <text x="142" y="783" fill="#64748b" font-size="13">Type, title, jurisdiction, filing date</text>
    <circle cx="130" cy="800" r="3" fill="#4f46e5"/>
    <text x="142" y="805" fill="#64748b" font-size="13">Status tracking (Draft to Registered)</text>
    <circle cx="130" cy="822" r="3" fill="#4f46e5"/>
    <text x="142" y="827" fill="#64748b" font-size="13">Registration numbers and descriptions</text>
  </g>

  <!-- Arrow 1→2 -->
  <path d="M440,760 L470,760" fill="none" stroke="#4f46e5" stroke-width="2.5" marker-end="url(#arrowhead)"/>
  <defs><marker id="arrowhead" markerWidth="10" markerHeight="7" refX="10" refY="3.5" orient="auto"><polygon points="0 0, 10 3.5, 0 7" fill="#4f46e5"/></marker></defs>

  <!-- Step 2 -->
  <g filter="url(#shadowLg)">
    <rect x="480" y="660" width="340" height="200" rx="16" fill="white"/>
    <circle cx="520" cy="700" r="20" fill="#7c3aed"/>
    <text x="520" y="706" text-anchor="middle" fill="white" font-size="14" font-weight="700">2</text>
    <text x="555" y="706" fill="#1e1b4b" font-size="18" font-weight="700">Track People</text>
    <line x1="500" y1="730" x2="800" y2="730" stroke="#e2e8f0" stroke-width="1"/>
    <text x="500" y="755" fill="#475569" font-size="13.5">Manage everyone who touches IP:</text>
    <circle cx="510" cy="778" r="3" fill="#7c3aed"/>
    <text x="522" y="783" fill="#64748b" font-size="13">Founders, employees, contractors</text>
    <circle cx="510" cy="800" r="3" fill="#7c3aed"/>
    <text x="522" y="805" fill="#64748b" font-size="13">Advisors with IP access</text>
    <circle cx="510" cy="822" r="3" fill="#7c3aed"/>
    <text x="522" y="827" fill="#64748b" font-size="13">Start/end dates for tenure tracking</text>
  </g>

  <!-- Arrow 2→3 -->
  <path d="M820,760 L850,760" fill="none" stroke="#7c3aed" stroke-width="2.5" marker-end="url(#arrowhead2)"/>
  <defs><marker id="arrowhead2" markerWidth="10" markerHeight="7" refX="10" refY="3.5" orient="auto"><polygon points="0 0, 10 3.5, 0 7" fill="#7c3aed"/></marker></defs>

  <!-- Step 3 -->
  <g filter="url(#shadowLg)">
    <rect x="860" y="660" width="340" height="200" rx="16" fill="white"/>
    <circle cx="900" cy="700" r="20" fill="#10b981"/>
    <text x="900" y="706" text-anchor="middle" fill="white" font-size="14" font-weight="700">3</text>
    <text x="935" y="706" fill="#1e1b4b" font-size="18" font-weight="700">Link Assignments</text>
    <line x1="880" y1="730" x2="1180" y2="730" stroke="#e2e8f0" stroke-width="1"/>
    <text x="880" y="755" fill="#475569" font-size="13.5">Connect people to IP via agreements:</text>
    <circle cx="890" cy="778" r="3" fill="#10b981"/>
    <text x="902" y="783" fill="#64748b" font-size="13">Company-wide or asset-specific scope</text>
    <circle cx="890" cy="800" r="3" fill="#10b981"/>
    <text x="902" y="805" fill="#64748b" font-size="13">Status: Signed, Pending, or Missing</text>
    <circle cx="890" cy="822" r="3" fill="#10b981"/>
    <text x="902" y="827" fill="#64748b" font-size="13">File references and signed dates</text>
  </g>

  <!-- Big arrow down to dashboard -->
  <path d="M700,870 L700,910" fill="none" stroke="#4f46e5" stroke-width="3" stroke-dasharray="8,4"/>
  <polygon points="692,910 700,925 708,910" fill="#4f46e5"/>

  <!-- Dashboard result -->
  <g filter="url(#shadowLg)">
    <rect x="200" y="935" width="1000" height="190" rx="20" fill="white" stroke="#4f46e5" stroke-width="2"/>
    <rect x="200" y="935" width="1000" height="50" rx="20" fill="#4f46e5"/>
    <rect x="200" y="960" width="1000" height="25" fill="#4f46e5"/>
    <text x="700" y="968" text-anchor="middle" fill="white" font-size="18" font-weight="700">Ownership Gap Dashboard — Instant Visibility</text>

    <!-- Mini cards inside dashboard -->
    <rect x="230" y="1000" width="220" height="100" rx="12" fill="#fef2f2"/>
    <text x="340" y="1030" text-anchor="middle" fill="#991b1b" font-size="30" font-weight="800">4</text>
    <text x="340" y="1055" text-anchor="middle" fill="#b91c1c" font-size="13" font-weight="600">Assets at Risk</text>
    <text x="340" y="1075" text-anchor="middle" fill="#dc2626" font-size="11">No signed agreements</text>

    <rect x="470" y="1000" width="220" height="100" rx="12" fill="#fffbeb"/>
    <text x="580" y="1030" text-anchor="middle" fill="#92400e" font-size="30" font-weight="800">5</text>
    <text x="580" y="1055" text-anchor="middle" fill="#b45309" font-size="13" font-weight="600">People Without Agreements</text>
    <text x="580" y="1075" text-anchor="middle" fill="#d97706" font-size="11">Need IP assignments</text>

    <rect x="710" y="1000" width="220" height="100" rx="12" fill="#fff7ed"/>
    <text x="820" y="1030" text-anchor="middle" fill="#9a3412" font-size="30" font-weight="800">3</text>
    <text x="820" y="1055" text-anchor="middle" fill="#c2410c" font-size="13" font-weight="600">High Priority</text>
    <text x="820" y="1075" text-anchor="middle" fill="#ea580c" font-size="11">Current team, no agreements</text>

    <rect x="950" y="1000" width="220" height="100" rx="12" fill="#f0fdf4"/>
    <text x="1060" y="1035" text-anchor="middle" fill="#166534" font-size="16" font-weight="800">GAPS</text>
    <text x="1060" y="1055" text-anchor="middle" fill="#15803d" font-size="13" font-weight="600">Coverage Status</text>
    <text x="1060" y="1075" text-anchor="middle" fill="#16a34a" font-size="11">Action required</text>
  </g>

  <!-- ═══════════════════════ KEY FEATURES ═══════════════════════ -->
  <text x="700" y="1195" text-anchor="middle" fill="#1e1b4b" font-size="28" font-weight="700">Key Features</text>
  <line x1="660" y1="1210" x2="740" y2="1210" stroke="#4f46e5" stroke-width="3" stroke-linecap="round"/>

  <!-- Feature 1 -->
  <g filter="url(#shadow)">
    <rect x="60" y="1235" width="300" height="170" rx="16" fill="white"/>
    <rect x="80" y="1255" width="50" height="50" rx="12" fill="#eef2ff"/>
    <path d="M97,1272 L105,1272 L113,1272 M97,1280 L113,1280 M97,1288 L109,1288" stroke="#4f46e5" stroke-width="2" stroke-linecap="round"/>
    <text x="80" y="1330" fill="#1e1b4b" font-size="16" font-weight="700">Deadline Engine</text>
    <text x="80" y="1352" fill="#64748b" font-size="13">Auto-generate statutory deadlines</text>
    <text x="80" y="1370" fill="#64748b" font-size="13">from filing dates. Configurable rules</text>
    <text x="80" y="1388" fill="#64748b" font-size="13">per asset type and jurisdiction.</text>
  </g>

  <!-- Feature 2 -->
  <g filter="url(#shadow)">
    <rect x="390" y="1235" width="300" height="170" rx="16" fill="white"/>
    <rect x="410" y="1255" width="50" height="50" rx="12" fill="#f0fdf4"/>
    <path d="M427,1280 L435,1288 L447,1272" stroke="#10b981" stroke-width="2.5" fill="none" stroke-linecap="round" stroke-linejoin="round"/>
    <text x="410" y="1330" fill="#1e1b4b" font-size="16" font-weight="700">Coverage Tracking</text>
    <text x="410" y="1352" fill="#64748b" font-size="13">See which jurisdictions are filed</text>
    <text x="410" y="1370" fill="#64748b" font-size="13">vs. intended. Surface blind spots</text>
    <text x="410" y="1388" fill="#64748b" font-size="13">before they become problems.</text>
  </g>

  <!-- Feature 3 -->
  <g filter="url(#shadow)">
    <rect x="720" y="1235" width="300" height="170" rx="16" fill="white"/>
    <rect x="740" y="1255" width="50" height="50" rx="12" fill="#faf5ff"/>
    <path d="M757,1272 L773,1272 M757,1280 L773,1280 M757,1288 L765,1288" stroke="#8b5cf6" stroke-width="2" stroke-linecap="round"/>
    <text x="740" y="1330" fill="#1e1b4b" font-size="16" font-weight="700">Full Audit Trail</text>
    <text x="740" y="1352" fill="#64748b" font-size="13">Every change tracked with who,</text>
    <text x="740" y="1370" fill="#64748b" font-size="13">what, and when. Readable diffs</text>
    <text x="740" y="1388" fill="#64748b" font-size="13">for compliance and accountability.</text>
  </g>

  <!-- Feature 4 -->
  <g filter="url(#shadow)">
    <rect x="1050" y="1235" width="300" height="170" rx="16" fill="white"/>
    <rect x="1070" y="1255" width="50" height="50" rx="12" fill="#fef2f2"/>
    <path d="M1087,1275 L1103,1275 L1103,1291 L1087,1291 Z M1091,1275 L1091,1271 L1099,1271 L1099,1275" stroke="#ef4444" stroke-width="2" fill="none" stroke-linecap="round" stroke-linejoin="round"/>
    <text x="1070" y="1330" fill="#1e1b4b" font-size="16" font-weight="700">Document Storage</text>
    <text x="1070" y="1352" fill="#64748b" font-size="13">Attach signed agreements and</text>
    <text x="1070" y="1370" fill="#64748b" font-size="13">certificates directly to assets.</text>
    <text x="1070" y="1388" fill="#64748b" font-size="13">S3-backed secure file storage.</text>
  </g>

  <!-- ═══════════════════════ BENEFITS ═══════════════════════ -->
  <text x="700" y="1470" text-anchor="middle" fill="#1e1b4b" font-size="28" font-weight="700">Benefits</text>
  <line x1="660" y1="1485" x2="740" y2="1485" stroke="#4f46e5" stroke-width="3" stroke-linecap="round"/>

  <!-- Benefits row -->
  <g filter="url(#shadowLg)">
    <rect x="60" y="1510" width="1280" height="180" rx="20" fill="url(#benefitGrad)" stroke="#bbf7d0" stroke-width="1.5"/>

    <!-- Benefit 1 -->
    <circle cx="180" cy="1580" r="35" fill="#dcfce7"/>
    <text x="180" y="1588" text-anchor="middle" fill="#16a34a" font-size="28">&#x2713;</text>
    <text x="180" y="1635" text-anchor="middle" fill="#1e293b" font-size="14" font-weight="700">Zero Missed</text>
    <text x="180" y="1655" text-anchor="middle" fill="#1e293b" font-size="14" font-weight="700">Deadlines</text>
    <text x="180" y="1675" text-anchor="middle" fill="#64748b" font-size="11.5">Auto-alerts before</text>
    <text x="180" y="1690" text-anchor="middle" fill="#64748b" font-size="11.5">anything expires</text>

    <!-- Benefit 2 -->
    <circle cx="415" cy="1580" r="35" fill="#dbeafe"/>
    <text x="415" y="1588" text-anchor="middle" fill="#2563eb" font-size="28">&#x1F50D;</text>
    <text x="415" y="1635" text-anchor="middle" fill="#1e293b" font-size="14" font-weight="700">Instant Gap</text>
    <text x="415" y="1655" text-anchor="middle" fill="#1e293b" font-size="14" font-weight="700">Detection</text>
    <text x="415" y="1675" text-anchor="middle" fill="#64748b" font-size="11.5">See ownership risks</text>
    <text x="415" y="1690" text-anchor="middle" fill="#64748b" font-size="11.5">at a glance</text>

    <!-- Benefit 3 -->
    <circle cx="650" cy="1580" r="35" fill="#fef3c7"/>
    <text x="650" y="1588" text-anchor="middle" fill="#d97706" font-size="28">&#x26A1;</text>
    <text x="650" y="1635" text-anchor="middle" fill="#1e293b" font-size="14" font-weight="700">Due Diligence</text>
    <text x="650" y="1655" text-anchor="middle" fill="#1e293b" font-size="14" font-weight="700">Ready</text>
    <text x="650" y="1675" text-anchor="middle" fill="#64748b" font-size="11.5">Clean records for</text>
    <text x="650" y="1690" text-anchor="middle" fill="#64748b" font-size="11.5">funding rounds &amp; M&amp;A</text>

    <!-- Benefit 4 -->
    <circle cx="885" cy="1580" r="35" fill="#ede9fe"/>
    <text x="885" y="1588" text-anchor="middle" fill="#7c3aed" font-size="28">&#x1F512;</text>
    <text x="885" y="1635" text-anchor="middle" fill="#1e293b" font-size="14" font-weight="700">Full</text>
    <text x="885" y="1655" text-anchor="middle" fill="#1e293b" font-size="14" font-weight="700">Accountability</text>
    <text x="885" y="1675" text-anchor="middle" fill="#64748b" font-size="11.5">Audit trail on every</text>
    <text x="885" y="1690" text-anchor="middle" fill="#64748b" font-size="11.5">change, by whom</text>

    <!-- Benefit 5 -->
    <circle cx="1120" cy="1580" r="35" fill="#fce7f3"/>
    <text x="1120" y="1588" text-anchor="middle" fill="#db2777" font-size="28">&#x1F4C4;</text>
    <text x="1120" y="1635" text-anchor="middle" fill="#1e293b" font-size="14" font-weight="700">Draft Form</text>
    <text x="1120" y="1655" text-anchor="middle" fill="#1e293b" font-size="14" font-weight="700">Generation</text>
    <text x="1120" y="1675" text-anchor="middle" fill="#64748b" font-size="11.5">Pre-filled PDFs from</text>
    <text x="1120" y="1690" text-anchor="middle" fill="#64748b" font-size="11.5">existing data</text>
  </g>

  <!-- ═══════════════════════ TARGET USERS ═══════════════════════ -->
  <text x="700" y="1760" text-anchor="middle" fill="#1e1b4b" font-size="28" font-weight="700">Who It's For</text>
  <line x1="660" y1="1775" x2="740" y2="1775" stroke="#4f46e5" stroke-width="3" stroke-linecap="round"/>

  <g filter="url(#shadow)">
    <rect x="100" y="1800" width="350" height="70" rx="14" fill="white"/>
    <circle cx="145" cy="1835" r="22" fill="#eef2ff"/>
    <text x="145" y="1841" text-anchor="middle" fill="#4f46e5" font-size="18">&#x2696;</text>
    <text x="180" y="1828" fill="#1e293b" font-size="15" font-weight="600">In-House Counsel</text>
    <text x="180" y="1848" fill="#64748b" font-size="12.5">Primary user — manages IP portfolio risk</text>
  </g>

  <g filter="url(#shadow)">
    <rect x="490" y="1800" width="350" height="70" rx="14" fill="white"/>
    <circle cx="535" cy="1835" r="22" fill="#f0fdf4"/>
    <text x="535" y="1841" text-anchor="middle" fill="#10b981" font-size="18">&#x1F3E2;</text>
    <text x="570" y="1828" fill="#1e293b" font-size="15" font-weight="600">Startup Founders</text>
    <text x="570" y="1848" fill="#64748b" font-size="12.5">Ensure clean IP before fundraising</text>
  </g>

  <g filter="url(#shadow)">
    <rect x="880" y="1800" width="350" height="70" rx="14" fill="white"/>
    <circle cx="925" cy="1835" r="22" fill="#faf5ff"/>
    <text x="925" y="1841" text-anchor="middle" fill="#8b5cf6" font-size="18">&#x1F4BC;</text>
    <text x="960" y="1828" fill="#1e293b" font-size="15" font-weight="600">IP Managers</text>
    <text x="960" y="1848" fill="#64748b" font-size="12.5">Track portfolio across jurisdictions</text>
  </g>
</svg>
